M48
; DRILL file {KiCad 7.0.5} date Mon Mar 25 21:39:06 2024
; FORMAT={-:-/ absolute / metric / decimal}
; #@! TF.CreationDate,2024-03-25T21:39:06+04:00
; #@! TF.GenerationSoftware,Kicad,Pcbnew,7.0.5
; #@! TF.FileFunction,Plated,1,2,PTH
FMAT,2
METRIC
; #@! TA.AperFunction,Plated,PTH,ComponentDrill
T1C0.800
; #@! TA.AperFunction,Plated,PTH,ComponentDrill
T2C1.000
; #@! TA.AperFunction,Plated,PTH,ComponentDrill
T3C1.100
; #@! TA.AperFunction,Plated,PTH,ComponentDrill
T4C1.200
; #@! TA.AperFunction,Plated,PTH,ComponentDrill
T5C1.520
%
G90
G05
T1
X127.0Y86.36
X127.0Y88.9
X127.0Y91.44
X127.0Y93.98
X127.0Y104.14
X134.62Y86.36
X134.62Y88.9
X134.62Y91.44
X134.62Y93.98
X142.24Y83.82
X142.24Y99.06
X142.24Y104.14
T2
X129.54Y78.74
X137.04Y78.74
T3
X111.76Y88.9
X111.76Y99.06
X119.38Y88.9
X119.38Y99.06
T4
X111.88Y109.22
X116.84Y73.78
X116.84Y81.28
X119.38Y109.22
T5
X127.0Y63.5
X127.0Y121.92
X132.08Y63.5
X132.08Y121.92
T0
M30
